<svg xmlns="http://www.w3.org/2000/svg" xmlns:xlink="http://www.w3.org/1999/xlink" contentStyleType="text/css" data-diagram-type="DESCRIPTION" height="906px" preserveAspectRatio="none" style="width:829px;height:906px;background:#FFFFFF;" version="1.1" viewBox="0 0 829 906" width="829px" zoomAndPan="magnify"><defs/><g><!--cluster main--><g class="cluster" data-entity="main" data-source-line="12" data-uid="ent0002" id="cluster_main"><path d="M8.5,228.45 L48.3008,228.45 A3.75,3.75 0 0 1 50.8008,230.95 L57.8008,250.7469 L179.5,250.7469 A2.5,2.5 0 0 1 182,253.2469 L182,896.84 A2.5,2.5 0 0 1 179.5,899.34 L8.5,899.34 A2.5,2.5 0 0 1 6,896.84 L6,230.95 A2.5,2.5 0 0 1 8.5,228.45" fill="none" style="stroke:#000000;stroke-width:1.5;"/><line style="stroke:#000000;stroke-width:1.5;" x1="6" x2="57.8008" y1="250.7469" y2="250.7469"/><text fill="#000000" font-family="sans-serif" font-size="14" font-weight="bold" lengthAdjust="spacing" textLength="38.8008" x="10" y="243.4451">main</text></g><!--cluster SimControl--><g class="cluster" data-entity="SimControl" data-source-line="26" data-uid="ent0014" id="cluster_SimControl"><rect fill="none" height="113.3" rx="2.5" ry="2.5" style="stroke:#181818;stroke-width:1;" width="437" x="276" y="463.45"/><rect fill="none" height="10" style="stroke:#181818;stroke-width:1;" width="15" x="693" y="468.45"/><rect fill="none" height="2" style="stroke:#181818;stroke-width:1;" width="4" x="691" y="470.45"/><rect fill="none" height="2" style="stroke:#181818;stroke-width:1;" width="4" x="691" y="474.45"/><text fill="#000000" font-family="sans-serif" font-size="14" font-weight="bold" lengthAdjust="spacing" textLength="87.3428" x="450.8286" y="489.4451">SimControl</text></g><!--cluster simulators--><g class="cluster" data-entity="simulators" data-source-line="35" data-uid="ent0023" id="cluster_simulators"><path d="M216.5,226.3 L300.9805,226.3 A3.75,3.75 0 0 1 303.4805,228.8 L310.4805,248.5969 L700.5,248.5969 A2.5,2.5 0 0 1 703,251.0969 L703,337.1 A2.5,2.5 0 0 1 700.5,339.6 L216.5,339.6 A2.5,2.5 0 0 1 214,337.1 L214,228.8 A2.5,2.5 0 0 1 216.5,226.3" fill="none" style="stroke:#000000;stroke-width:1.5;"/><line style="stroke:#000000;stroke-width:1.5;" x1="214" x2="310.4805" y1="248.5969" y2="248.5969"/><text fill="#000000" font-family="sans-serif" font-size="14" font-weight="bold" lengthAdjust="spacing" textLength="83.4805" x="218" y="241.2951">simulators</text></g><!--cluster isa--><g class="cluster" data-entity="isa" data-source-line="44" data-uid="ent0033" id="cluster_isa"><path d="M425.5,6 L449.0791,6 A3.75,3.75 0 0 1 451.5791,8.5 L458.5791,28.2969 L819.5,28.2969 A2.5,2.5 0 0 1 822,30.7969 L822,183.8 A2.5,2.5 0 0 1 819.5,186.3 L425.5,186.3 A2.5,2.5 0 0 1 423,183.8 L423,8.5 A2.5,2.5 0 0 1 425.5,6" fill="none" style="stroke:#000000;stroke-width:1.5;"/><line style="stroke:#000000;stroke-width:1.5;" x1="423" x2="458.5791" y1="28.2969" y2="28.2969"/><text fill="#000000" font-family="sans-serif" font-size="14" font-weight="bold" lengthAdjust="spacing" textLength="22.5791" x="427" y="20.9951">isa</text></g><!--cluster pos. extensions--><g class="cluster" data-entity="pos. extensions" data-source-line="46" data-uid="ent0035" id="cluster_pos. extensions"><rect fill="none" height="97.3" rx="2.5" ry="2.5" style="stroke:#181818;stroke-width:1;" width="229" x="455" y="57"/><path d="M588.8945,57 L588.8945,66.2969 L578.8945,76.2969 L455,76.2969" fill="none" style="stroke:#181818;stroke-width:1;"/><text fill="#000000" font-family="sans-serif" font-size="14" font-weight="bold" lengthAdjust="spacing" textLength="123.8945" x="458" y="70.9951">pos. extensions</text></g><!--entity start--><g class="entity" data-entity="start" data-source-line="13" data-uid="ent0003" id="entity_start"><ellipse cx="94" cy="292.45" fill="#F1F1F1" rx="8" ry="8" style="stroke:#181818;stroke-width:0.5;"/><text fill="#000000" font-family="sans-serif" font-size="14" lengthAdjust="spacing" textLength="32.6074" x="77.6963" y="322.4451">start</text></g><!--entity CLI--><g class="entity" data-entity="CLI" data-source-line="14" data-uid="ent0004" id="entity_CLI"><rect fill="#F1F1F1" height="46.2969" rx="2.5" ry="2.5" style="stroke:#181818;stroke-width:0.5;" width="61.7041" x="63.15" y="387.3"/><rect fill="#F1F1F1" height="10" style="stroke:#181818;stroke-width:0.5;" width="15" x="104.8541" y="392.3"/><rect fill="#F1F1F1" height="2" style="stroke:#181818;stroke-width:0.5;" width="4" x="102.8541" y="394.3"/><rect fill="#F1F1F1" height="2" style="stroke:#181818;stroke-width:0.5;" width="4" x="102.8541" y="398.3"/><text fill="#000000" font-family="sans-serif" font-size="14" lengthAdjust="spacing" textLength="21.7041" x="78.15" y="420.2951">CLI</text></g><!--entity ReadBinary--><g class="entity" data-entity="ReadBinary" data-source-line="15" data-uid="ent0005" id="entity_ReadBinary"><rect fill="#F1F1F1" height="46.2969" rx="2.5" ry="2.5" style="stroke:#181818;stroke-width:0.5;" width="120.7939" x="33.6" y="506.45"/><rect fill="#F1F1F1" height="10" style="stroke:#181818;stroke-width:0.5;" width="15" x="134.3939" y="511.45"/><rect fill="#F1F1F1" height="2" style="stroke:#181818;stroke-width:0.5;" width="4" x="132.3939" y="513.45"/><rect fill="#F1F1F1" height="2" style="stroke:#181818;stroke-width:0.5;" width="4" x="132.3939" y="517.45"/><text fill="#000000" font-family="sans-serif" font-size="14" lengthAdjust="spacing" textLength="80.7939" x="48.6" y="539.4451">ReadBinary</text></g><!--entity SimControlRun--><g class="entity" data-entity="SimControlRun" data-source-line="16" data-uid="ent0006" id="entity_SimControlRun"><rect fill="#F1F1F1" height="46.2969" rx="2.5" ry="2.5" style="stroke:#181818;stroke-width:0.5;" width="144.8018" x="21.6" y="612.75"/><rect fill="#F1F1F1" height="10" style="stroke:#181818;stroke-width:0.5;" width="15" x="146.4018" y="617.75"/><rect fill="#F1F1F1" height="2" style="stroke:#181818;stroke-width:0.5;" width="4" x="144.4018" y="619.75"/><rect fill="#F1F1F1" height="2" style="stroke:#181818;stroke-width:0.5;" width="4" x="144.4018" y="623.75"/><text fill="#000000" font-family="sans-serif" font-size="14" lengthAdjust="spacing" textLength="104.8018" x="36.6" y="645.7451">SimControlRun</text></g><!--entity WriteBinary--><g class="entity" data-entity="WriteBinary" data-source-line="17" data-uid="ent0007" id="entity_WriteBinary"><rect fill="#F1F1F1" height="46.2969" rx="2.5" ry="2.5" style="stroke:#181818;stroke-width:0.5;" width="122.5781" x="32.71" y="719.04"/><rect fill="#F1F1F1" height="10" style="stroke:#181818;stroke-width:0.5;" width="15" x="135.2881" y="724.04"/><rect fill="#F1F1F1" height="2" style="stroke:#181818;stroke-width:0.5;" width="4" x="133.2881" y="726.04"/><rect fill="#F1F1F1" height="2" style="stroke:#181818;stroke-width:0.5;" width="4" x="133.2881" y="730.04"/><text fill="#000000" font-family="sans-serif" font-size="14" lengthAdjust="spacing" textLength="82.5781" x="47.71" y="752.0351">WriteBinary</text></g><!--entity exit--><g class="entity" data-entity="exit" data-source-line="18" data-uid="ent0008" id="entity_exit"><ellipse cx="94" cy="854.34" fill="#F1F1F1" rx="8" ry="8" style="stroke:#181818;stroke-width:0.5;"/><text fill="#000000" font-family="sans-serif" font-size="14" lengthAdjust="spacing" textLength="26.2773" x="80.8613" y="884.3351">exit</text></g><!--entity runFree--><g class="entity" data-entity="runFree" data-source-line="27" data-uid="ent0015" id="entity_runFree"><rect fill="#F1F1F1" height="46.2969" rx="2.5" ry="2.5" style="stroke:#181818;stroke-width:0.5;" width="94.5371" x="457.73" y="506.45"/><rect fill="#F1F1F1" height="10" style="stroke:#181818;stroke-width:0.5;" width="15" x="532.2671" y="511.45"/><rect fill="#F1F1F1" height="2" style="stroke:#181818;stroke-width:0.5;" width="4" x="530.2671" y="513.45"/><rect fill="#F1F1F1" height="2" style="stroke:#181818;stroke-width:0.5;" width="4" x="530.2671" y="517.45"/><text fill="#000000" font-family="sans-serif" font-size="14" lengthAdjust="spacing" textLength="54.5371" x="472.73" y="539.4451">runFree</text></g><!--entity runSteps--><g class="entity" data-entity="runSteps" data-source-line="28" data-uid="ent0016" id="entity_runSteps"><rect fill="#F1F1F1" height="46.2969" rx="2.5" ry="2.5" style="stroke:#181818;stroke-width:0.5;" width="102.6719" x="319.66" y="506.45"/><rect fill="#F1F1F1" height="10" style="stroke:#181818;stroke-width:0.5;" width="15" x="402.3319" y="511.45"/><rect fill="#F1F1F1" height="2" style="stroke:#181818;stroke-width:0.5;" width="4" x="400.3319" y="513.45"/><rect fill="#F1F1F1" height="2" style="stroke:#181818;stroke-width:0.5;" width="4" x="400.3319" y="517.45"/><text fill="#000000" font-family="sans-serif" font-size="14" lengthAdjust="spacing" textLength="62.6719" x="334.66" y="539.4451">runSteps</text></g><!--entity simState--><g class="entity" data-entity="simState" data-source-line="29" data-uid="ent0017" id="entity_simState"><rect fill="#F1F1F1" height="46.2969" rx="2.5" ry="2.5" style="stroke:#181818;stroke-width:0.5;" width="101.8789" x="587.06" y="506.45"/><rect fill="#F1F1F1" height="10" style="stroke:#181818;stroke-width:0.5;" width="15" x="668.9389" y="511.45"/><rect fill="#F1F1F1" height="2" style="stroke:#181818;stroke-width:0.5;" width="4" x="666.9389" y="513.45"/><rect fill="#F1F1F1" height="2" style="stroke:#181818;stroke-width:0.5;" width="4" x="666.9389" y="517.45"/><text fill="#000000" font-family="sans-serif" font-size="14" lengthAdjust="spacing" textLength="61.8789" x="602.06" y="539.4451">simState</text></g><!--entity simSoft--><g class="entity" data-entity="simSoft" data-source-line="36" data-uid="ent0024" id="entity_simSoft"><rect fill="#F1F1F1" height="46.2969" rx="2.5" ry="2.5" style="stroke:#181818;stroke-width:0.5;" width="92.6914" x="237.65" y="269.3"/><rect fill="#F1F1F1" height="10" style="stroke:#181818;stroke-width:0.5;" width="15" x="310.3414" y="274.3"/><rect fill="#F1F1F1" height="2" style="stroke:#181818;stroke-width:0.5;" width="4" x="308.3414" y="276.3"/><rect fill="#F1F1F1" height="2" style="stroke:#181818;stroke-width:0.5;" width="4" x="308.3414" y="280.3"/><text fill="#000000" font-family="sans-serif" font-size="14" lengthAdjust="spacing" textLength="52.6914" x="252.65" y="302.2951">simSoft</text></g><!--entity simSingleCycle--><g class="entity" data-entity="simSingleCycle" data-source-line="37" data-uid="ent0025" id="entity_simSingleCycle"><rect fill="#F1F1F1" height="46.2969" rx="2.5" ry="2.5" style="stroke:#181818;stroke-width:0.5;" width="146.1211" x="364.94" y="269.3"/><rect fill="#F1F1F1" height="10" style="stroke:#181818;stroke-width:0.5;" width="15" x="491.0611" y="274.3"/><rect fill="#F1F1F1" height="2" style="stroke:#181818;stroke-width:0.5;" width="4" x="489.0611" y="276.3"/><rect fill="#F1F1F1" height="2" style="stroke:#181818;stroke-width:0.5;" width="4" x="489.0611" y="280.3"/><text fill="#000000" font-family="sans-serif" font-size="14" lengthAdjust="spacing" textLength="106.1211" x="379.94" y="302.2951">simSingleCycle</text></g><!--entity sim5Stage--><g class="entity" data-entity="sim5Stage" data-source-line="38" data-uid="ent0026" id="entity_sim5Stage"><rect fill="#F1F1F1" height="46.2969" rx="2.5" ry="2.5" style="stroke:#181818;stroke-width:0.5;" width="114.1836" x="545.91" y="269.3"/><rect fill="#F1F1F1" height="10" style="stroke:#181818;stroke-width:0.5;" width="15" x="640.0936" y="274.3"/><rect fill="#F1F1F1" height="2" style="stroke:#181818;stroke-width:0.5;" width="4" x="638.0936" y="276.3"/><rect fill="#F1F1F1" height="2" style="stroke:#181818;stroke-width:0.5;" width="4" x="638.0936" y="280.3"/><text fill="#000000" font-family="sans-serif" font-size="14" lengthAdjust="spacing" textLength="74.1836" x="560.91" y="302.2951">sim5Stage</text></g><!--entity rv32i--><g class="entity" data-entity="rv32i" data-source-line="45" data-uid="ent0034" id="entity_rv32i"><rect fill="#F1F1F1" height="46.2969" rx="2.5" ry="2.5" style="stroke:#181818;stroke-width:0.5;" width="75.7451" x="703.13" y="92"/><rect fill="#F1F1F1" height="10" style="stroke:#181818;stroke-width:0.5;" width="15" x="758.8751" y="97"/><rect fill="#F1F1F1" height="2" style="stroke:#181818;stroke-width:0.5;" width="4" x="756.8751" y="99"/><rect fill="#F1F1F1" height="2" style="stroke:#181818;stroke-width:0.5;" width="4" x="756.8751" y="103"/><text fill="#000000" font-family="sans-serif" font-size="14" lengthAdjust="spacing" textLength="35.7451" x="718.13" y="124.9951">rv32i</text></g><!--entity rv32f--><g class="entity" data-entity="rv32f" data-source-line="47" data-uid="ent0036" id="entity_rv32f"><rect fill="#F1F1F1" height="46.2969" rx="2.5" ry="2.5" style="stroke:#181818;stroke-width:0.5;" width="76.7842" x="470.61" y="92"/><rect fill="#F1F1F1" height="10" style="stroke:#181818;stroke-width:0.5;" width="15" x="527.3942" y="97"/><rect fill="#F1F1F1" height="2" style="stroke:#181818;stroke-width:0.5;" width="4" x="525.3942" y="99"/><rect fill="#F1F1F1" height="2" style="stroke:#181818;stroke-width:0.5;" width="4" x="525.3942" y="103"/><text fill="#000000" font-family="sans-serif" font-size="14" lengthAdjust="spacing" textLength="36.7842" x="485.61" y="124.9951">rv32f</text></g><!--entity rv64m--><g class="entity" data-entity="rv64m" data-source-line="48" data-uid="ent0037" id="entity_rv64m"><rect fill="#F1F1F1" height="46.2969" rx="2.5" ry="2.5" style="stroke:#181818;stroke-width:0.5;" width="85.4932" x="582.25" y="92"/><rect fill="#F1F1F1" height="10" style="stroke:#181818;stroke-width:0.5;" width="15" x="647.7432" y="97"/><rect fill="#F1F1F1" height="2" style="stroke:#181818;stroke-width:0.5;" width="4" x="645.7432" y="99"/><rect fill="#F1F1F1" height="2" style="stroke:#181818;stroke-width:0.5;" width="4" x="645.7432" y="103"/><text fill="#000000" font-family="sans-serif" font-size="14" lengthAdjust="spacing" textLength="45.4932" x="597.25" y="124.9951">rv64m</text></g><!--entity userInput--><g class="entity" data-entity="userInput" data-source-line="31" data-uid="ent0018" id="entity_userInput"><rect fill="#F1F1F1" height="46.2969" rx="2.5" ry="2.5" style="stroke:#181818;stroke-width:0.5;" width="106.7871" x="389.61" y="387.3"/><rect fill="#F1F1F1" height="10" style="stroke:#181818;stroke-width:0.5;" width="15" x="476.3971" y="392.3"/><rect fill="#F1F1F1" height="2" style="stroke:#181818;stroke-width:0.5;" width="4" x="474.3971" y="394.3"/><rect fill="#F1F1F1" height="2" style="stroke:#181818;stroke-width:0.5;" width="4" x="474.3971" y="398.3"/><text fill="#000000" font-family="sans-serif" font-size="14" lengthAdjust="spacing" textLength="66.7871" x="404.61" y="420.2951">userInput</text></g><!--entity OS timing--><g class="entity" data-entity="OS timing" data-source-line="32" data-uid="ent0020" id="entity_OS timing"><rect fill="#F1F1F1" height="46.2969" rx="2.5" ry="2.5" style="stroke:#181818;stroke-width:0.5;" width="109.0225" x="531.49" y="387.3"/><rect fill="#F1F1F1" height="10" style="stroke:#181818;stroke-width:0.5;" width="15" x="620.5125" y="392.3"/><rect fill="#F1F1F1" height="2" style="stroke:#181818;stroke-width:0.5;" width="4" x="618.5125" y="394.3"/><rect fill="#F1F1F1" height="2" style="stroke:#181818;stroke-width:0.5;" width="4" x="618.5125" y="398.3"/><text fill="#000000" font-family="sans-serif" font-size="14" lengthAdjust="spacing" textLength="69.0225" x="546.49" y="420.2951">OS timing</text></g><!--entity graphic--><g class="entity" data-entity="graphic" data-source-line="40" data-uid="ent0027" id="entity_graphic"><rect fill="#F1F1F1" height="46.2969" rx="2.5" ry="2.5" style="stroke:#181818;stroke-width:0.5;" width="92.5684" x="516.72" y="612.75"/><rect fill="#F1F1F1" height="10" style="stroke:#181818;stroke-width:0.5;" width="15" x="589.2884" y="617.75"/><rect fill="#F1F1F1" height="2" style="stroke:#181818;stroke-width:0.5;" width="4" x="587.2884" y="619.75"/><rect fill="#F1F1F1" height="2" style="stroke:#181818;stroke-width:0.5;" width="4" x="587.2884" y="623.75"/><text fill="#000000" font-family="sans-serif" font-size="14" lengthAdjust="spacing" textLength="52.5684" x="531.72" y="645.7451">graphic</text></g><!--entity rv32utils--><g class="entity" data-entity="rv32utils" data-source-line="42" data-uid="ent0031" id="entity_rv32utils"><rect fill="#F1F1F1" height="46.2969" rx="2.5" ry="2.5" style="stroke:#181818;stroke-width:0.5;" width="101.291" x="297.35" y="92"/><rect fill="#F1F1F1" height="10" style="stroke:#181818;stroke-width:0.5;" width="15" x="378.641" y="97"/><rect fill="#F1F1F1" height="2" style="stroke:#181818;stroke-width:0.5;" width="4" x="376.641" y="99"/><rect fill="#F1F1F1" height="2" style="stroke:#181818;stroke-width:0.5;" width="4" x="376.641" y="103"/><text fill="#000000" font-family="sans-serif" font-size="14" lengthAdjust="spacing" textLength="61.291" x="312.35" y="124.9951">rv32utils</text></g><!--entity BindFunctPointers--><g class="entity" data-entity="BindFunctPointers" data-source-line="53" data-uid="ent0039" id="entity_BindFunctPointers"><ellipse cx="284" cy="410.45" fill="#F1F1F1" rx="8" ry="8" style="stroke:#181818;stroke-width:0.5;"/><text fill="#000000" font-family="sans-serif" font-size="14" lengthAdjust="spacing" textLength="127.1621" x="220.4189" y="440.4451">BindFunctPointers</text></g><!--link start to CLI--><g class="link" data-entity-1="start" data-entity-2="CLI" data-source-line="20" data-uid="lnk9" id="link_start_CLI"><path d="M94,301.42 C94,318.83 94,354.75 94,380.96" fill="none" id="start-to-CLI" style="stroke:#0000FF;stroke-width:1;"/><polygon fill="#0000FF" points="94,386.96,98,377.96,94,381.96,90,377.96,94,386.96" style="stroke:#0000FF;stroke-width:1;"/></g><!--link CLI to ReadBinary--><g class="link" data-entity-1="CLI" data-entity-2="ReadBinary" data-source-line="21" data-uid="lnk10" id="link_CLI_ReadBinary"><path d="M94,434.04 C94,454.78 94,479.36 94,500.08" fill="none" id="CLI-to-ReadBinary" style="stroke:#0000FF;stroke-width:1;"/><polygon fill="#0000FF" points="94,506.08,98,497.08,94,501.08,90,497.08,94,506.08" style="stroke:#0000FF;stroke-width:1;"/></g><!--link ReadBinary to SimControlRun--><g class="link" data-entity-1="ReadBinary" data-entity-2="SimControlRun" data-source-line="22" data-uid="lnk11" id="link_ReadBinary_SimControlRun"><path d="M94,553.23 C94,570.72 94,588.83 94,606.31" fill="none" id="ReadBinary-to-SimControlRun" style="stroke:#0000FF;stroke-width:1;"/><polygon fill="#0000FF" points="94,612.31,98,603.31,94,607.31,90,603.31,94,612.31" style="stroke:#0000FF;stroke-width:1;"/></g><!--link SimControlRun to WriteBinary--><g class="link" data-entity-1="SimControlRun" data-entity-2="WriteBinary" data-source-line="23" data-uid="lnk12" id="link_SimControlRun_WriteBinary"><path d="M94,659.53 C94,677.02 94,695.12 94,712.6" fill="none" id="SimControlRun-to-WriteBinary" style="stroke:#0000FF;stroke-width:1;"/><polygon fill="#0000FF" points="94,718.6,98,709.6,94,713.6,90,709.6,94,718.6" style="stroke:#0000FF;stroke-width:1;"/></g><!--link WriteBinary to exit--><g class="link" data-entity-1="WriteBinary" data-entity-2="exit" data-source-line="24" data-uid="lnk13" id="link_WriteBinary_exit"><path d="M94,765.75 C94,790.55 94,823.05 94,839.48" fill="none" id="WriteBinary-to-exit" style="stroke:#0000FF;stroke-width:1;"/><polygon fill="#0000FF" points="94,845.48,98,836.48,94,840.48,90,836.48,94,845.48" style="stroke:#0000FF;stroke-width:1;"/></g><!--link userInput to runSteps--><g class="link" data-entity-1="userInput" data-entity-2="runSteps" data-source-line="31" data-uid="lnk19" id="link_userInput_runSteps"><path d="M429.12,434.04 C416.37,454.78 400.7227,480.2489 387.9827,500.9689" fill="none" id="userInput-to-runSteps" style="stroke:#181818;stroke-width:1;"/><polygon fill="#181818" points="384.84,506.08,392.9614,500.5084,387.4589,501.8207,386.1466,496.3182,384.84,506.08" style="stroke:#181818;stroke-width:1;"/></g><!--link OS timing to runSteps--><g class="link" data-entity-1="OS timing" data-entity-2="runSteps" data-source-line="32" data-uid="lnk21" id="link_OS timing_runSteps"><path d="M532.63,433.98 C526.43,436.07 520.12,437.96 514,439.45 C481.86,447.29 469.24,431.97 440,447.45 C414.99,460.69 398.3932,481.9915 386.5432,501.0915" fill="none" id="OS timing-to-runSteps" style="stroke:#181818;stroke-width:1;"/><polygon fill="#181818" points="383.38,506.19,391.5237,500.6511,386.016,501.9413,384.7258,496.4335,383.38,506.19" style="stroke:#181818;stroke-width:1;"/></g><!--link SimControl to SimControlRun--><g class="link" data-entity-1="SimControl" data-entity-2="SimControlRun" data-source-line="33" data-uid="lnk22" id="link_SimControl_SimControlRun"><path d="M275.8772,535.9326 C275.7931,535.9874 275.7085,536.0426 275.6232,536.0982 C275.4528,536.2092 275.28,536.3218 275.105,536.4358 C274.4049,536.8917 273.6684,537.3706 272.8972,537.8711 C266.7275,541.8753 258.3388,547.2644 248.64,553.3513 C229.2425,565.525 204.605,580.49 182,592.75 C169.64,599.45 161.46,603.6454 148.72,609.7554" fill="none" id="SimControl-to-SimControlRun" style="stroke:#181818;stroke-width:1;"/><polygon fill="#181818" points="143.31,612.35,153.1547,612.0648,147.8183,610.1878,149.6953,604.8514,143.31,612.35" style="stroke:#181818;stroke-width:1;"/></g><!--link simulators to graphic--><g class="link" data-entity-1="simulators" data-entity-2="graphic" data-source-line="40" data-uid="lnk28" id="link_simulators_graphic"><path d="M703.1132,312.8788 C703.3048,313.3698 703.4987,313.869 703.6949,314.3763 C705.2642,318.4346 706.9765,323.0109 708.7716,328.0403 C715.9519,348.1581 724.4563,375.5263 730.4275,405.9925 C742.37,466.925 744.18,540.25 705,592.75 C683.24,621.91 648.1256,631.1696 615.7256,634.0996" fill="none" id="simulators-to-graphic" style="stroke:#181818;stroke-width:1;"/><polygon fill="#181818" points="609.75,634.64,619.0737,637.8132,614.7297,634.1897,618.3532,629.8457,609.75,634.64" style="stroke:#181818;stroke-width:1;"/></g><!--reverse link runSteps to graphic--><g class="link" data-entity-1="runSteps" data-entity-2="graphic" data-source-line="41" data-uid="lnk30" id="link_runSteps_graphic"><path d="M395.7731,557.492 C408.6331,570.532 421.93,582.12 440,592.75 C463.64,606.65 492.55,616.85 516.4,623.73" fill="none" id="runSteps-backto-graphic" style="stroke:#181818;stroke-width:1;"/><polygon fill="#181818" points="391.56,553.22,395.0316,562.4367,395.0709,556.78,400.7276,556.8193,391.56,553.22" style="stroke:#181818;stroke-width:1;"/></g><!--link rv32utils to simulators--><g class="link" data-entity-1="rv32utils" data-entity-2="simulators" data-source-line="42" data-uid="lnk32" id="link_rv32utils_simulators"><path d="M367.51,138.57 C387.21,159.4 419.69,189.13 455,202.3 C478.02,210.89 657.03,194.69 676,210.3 C679.4638,213.15 682.3672,216.4997 684.7952,220.1863 C686.0093,222.0295 684.44,240.8779 685.427,242.8693" fill="none" id="rv32utils-to-simulators" style="stroke:#181818;stroke-width:1;"/><polygon fill="#181818" points="688.0914,248.2453,687.6788,238.4051,685.8711,243.7653,680.5108,241.9576,688.0914,248.2453" style="stroke:#181818;stroke-width:1;"/></g><!--link isa to simulators--><g class="link" data-entity-1="isa" data-entity-2="simulators" data-source-line="51" data-uid="lnk38" id="link_isa_simulators"><path d="M802.4953,186.342 C802.4416,186.4849 802.3876,186.6276 802.3334,186.7702 C802.225,187.0554 802.1156,187.3401 802.0051,187.6243 C801.7842,188.1927 801.5592,188.7591 801.3301,189.3233 C799.4973,193.8363 797.4,198.2038 795,202.3 C780.19,227.585 755.7325,249.5775 734.7125,265.3925 C724.2025,273.3 714.5519,279.6631 707.3962,284.1213 C706.5018,284.6785 705.6463,285.206 704.833,285.703 C704.4264,285.9516 704.0303,286.1925 703.6451,286.4257 C703.4526,286.5422 708.4016,283.5599 708.2146,283.6726" fill="none" id="isa-to-simulators" style="stroke:#181818;stroke-width:1;"/><polygon fill="#181818" points="703.0757,286.7696,712.8487,285.55,707.3581,284.1888,708.7193,278.6982,703.0757,286.7696" style="stroke:#181818;stroke-width:1;"/></g><!--link simSoft to BindFunctPointers--><g class="link" data-entity-1="simSoft" data-entity-2="BindFunctPointers" data-source-line="54" data-uid="lnk40" id="link_simSoft_BindFunctPointers"><path d="M284,316.09 C284,342.33 284,378.19 284,395.53" fill="none" id="simSoft-to-BindFunctPointers" style="stroke:#181818;stroke-width:1;stroke-dasharray:7,7;"/><polygon fill="#181818" points="284,401.53,288,392.53,284,396.53,280,392.53,284,401.53" style="stroke:#181818;stroke-width:1;"/></g><!--link simSingleCycle to BindFunctPointers--><g class="link" data-entity-1="simSingleCycle" data-entity-2="BindFunctPointers" data-source-line="55" data-uid="lnk41" id="link_simSingleCycle_BindFunctPointers"><path d="M407.94,316.09 C372.23,342.99 319.5224,382.6898 297.6324,399.1798" fill="none" id="simSingleCycle-to-BindFunctPointers" style="stroke:#181818;stroke-width:1;stroke-dasharray:7,7;"/><polygon fill="#181818" points="292.84,402.79,302.4353,400.5697,296.8336,399.7815,297.6218,394.1799,292.84,402.79" style="stroke:#181818;stroke-width:1;"/></g><!--link sim5Stage to BindFunctPointers--><g class="link" data-entity-1="sim5Stage" data-entity-2="BindFunctPointers" data-source-line="56" data-uid="lnk42" id="link_sim5Stage_BindFunctPointers"><path d="M582.52,315.94 C568.74,329.62 549.43,346.21 529,355.6 C464.75,385.13 440.76,364.94 372,381.45 C342.38,388.56 313.8864,398.4832 298.2664,404.1832" fill="none" id="sim5Stage-to-BindFunctPointers" style="stroke:#181818;stroke-width:1;stroke-dasharray:7,7;"/><polygon fill="#181818" points="292.63,406.24,302.4559,406.9124,297.327,404.526,299.7134,399.3971,292.63,406.24" style="stroke:#181818;stroke-width:1;"/></g><!--link BindFunctPointers to SimControl--><g class="link" data-entity-1="BindFunctPointers" data-entity-2="SimControl" data-source-line="57" data-uid="lnk43" id="link_BindFunctPointers_SimControl"><path d="M284,419.14 C284,425.5525 284,435.4381 284,446.6991 C284,449.5143 284,452.4155 284,455.3699 C284,456.847 284,458.3375 284,459.8372 C284,460.587 284,461.3392 284,462.0931 C284,462.4701 284,456.8475 284,457.2253" fill="none" id="BindFunctPointers-to-SimControl" style="stroke:#181818;stroke-width:1;"/><polygon fill="#181818" points="284,463.2253,288,454.2253,284,458.2253,280,454.2253,284,463.2253" style="stroke:#181818;stroke-width:1;"/></g><!--SRC=[VLDDRzim3BthLn3j8ISxRRQkjnwQeK20VI46jeFXWohJZZ2RCYHwQJ7iluzMajfErmM8BNwzzqZAomLyHjP9gLchrTNg9hc-JbQtQck_Rp8mhkqS8J6KLjTUjsgnL6gvW2-ECQZxfaVGthjza1T27x04TX1sRW_Eb-Z1LO1FQ7gsZi0IjDfIghOul2tLf-fOCVnV60-8nX6XOInJ-AZ3Jk3_GMUfj4Op0kyqomFL1CLeWiS9a1JKA3a-ZRrqslpKDSB58EW2VYjBZBxI1Y6mzgpozQTDeV8jwlBUalRFOcIsNJjYxvfjJsB_y9Rn51q1yCco-gCY3YJvvQECgqZku0WvF6Vk6SV4c2MTSy_jMUfCrioQfaMLuyHW19HfWFnotzE3HonUh8on2qSps3PZ6NuXdUQo4R-XhcTX4EXJgig_Pi2sbOMV1qQsG-Iylt51GjGtcfqFmveYhwkuE9m4kS7risdmuBWHJNNKDAkB37AFkvqradWwGT9tGsHiBVU_tgtaqZP1WgNRauIdI1DTDkWeQAYmXQhaAn5lvq8gesMa83S_IXvc9pbLSJXzUDyE-aHXH4XUCOmNIRPMFlHa-9kBpZ2s3sbwzrPyCfJ_f1r7zKR6Ay_vbeg_]--></g></svg>