<svg xmlns="http://www.w3.org/2000/svg" xmlns:xlink="http://www.w3.org/1999/xlink" contentStyleType="text/css" data-diagram-type="ACTIVITY" height="957px" preserveAspectRatio="none" style="width:575px;height:957px;background:#FFFFFF;" version="1.1" viewBox="0 0 575 957" width="575px" zoomAndPan="magnify"><defs/><g><rect fill="none" height="61.2969" style="stroke:#000000;stroke-width:1.5;" width="54.9795" x="427.2803" y="11"/><path d="M472.2598,11 L472.2598,20.2969 L462.2598,30.2969 L427.2803,30.2969" fill="none" style="stroke:#000000;stroke-width:1.5;"/><text fill="#000000" font-family="sans-serif" font-size="14" lengthAdjust="spacing" textLength="34.9795" x="430.2803" y="24.9951">main</text><ellipse cx="454.77" cy="50.2969" fill="#222222" rx="10" ry="10" style="stroke:#222222;stroke-width:1;"/><polygon fill="#F1F1F1" points="418.6987,92.2969,500.8413,92.2969,490.8413,123.25,500.8413,154.2031,418.6987,154.2031" style="stroke:#181818;stroke-width:0.5;"/><text fill="#000000" font-family="sans-serif" font-size="12" lengthAdjust="spacing" textLength="33.5098" x="428.6987" y="113.4355">prog*</text><text fill="#000000" font-family="sans-serif" font-size="12" lengthAdjust="spacing" textLength="52.1426" x="428.6987" y="127.4043">progSize</text><text fill="#000000" font-family="sans-serif" font-size="12" lengthAdjust="spacing" textLength="46.8867" x="428.6987" y="141.373">regFile*</text><rect fill="none" height="619.7183" style="stroke:#000000;stroke-width:1.5;" width="553.7788" x="11" y="164.2031"/><path d="M101.165,164.2031 L101.165,173.5 L91.165,183.5 L11,183.5" fill="none" style="stroke:#000000;stroke-width:1.5;"/><text fill="#000000" font-family="sans-serif" font-size="14" lengthAdjust="spacing" textLength="80.165" x="14" y="178.1982">simSoftRun</text><rect fill="#F1F1F1" height="33.9688" rx="12.5" ry="12.5" style="stroke:#181818;stroke-width:0.5;" width="60.9336" x="424.3032" y="200.5"/><text fill="#000000" font-family="sans-serif" font-size="12" lengthAdjust="spacing" textLength="40.9336" x="434.3032" y="221.6387">PC = 0</text><rect fill="#F1F1F1" height="33.9688" rx="12.5" ry="12.5" style="stroke:#181818;stroke-width:0.5;" width="118.5547" x="395.4927" y="310.1792"/><text fill="#000000" font-family="sans-serif" font-size="12" lengthAdjust="spacing" textLength="98.5547" x="405.4927" y="331.3179">Instruction fetch</text><rect fill="#F1F1F1" height="33.9688" rx="12.5" ry="12.5" style="stroke:#181818;stroke-width:0.5;" width="100.8711" x="404.3345" y="364.1479"/><text fill="#000000" font-family="sans-serif" font-size="12" lengthAdjust="spacing" textLength="80.8711" x="414.3345" y="385.2866">Increment PC</text><rect fill="#F1F1F1" height="33.9688" rx="12.5" ry="12.5" style="stroke:#181818;stroke-width:0.5;" width="164.0176" x="372.7612" y="418.1167"/><text fill="#000000" font-family="sans-serif" font-size="12" lengthAdjust="spacing" textLength="144.0176" x="382.7612" y="439.2554">Decode instruction type</text><rect fill="#F1F1F1" height="33.9688" rx="12.5" ry="12.5" style="stroke:#181818;stroke-width:0.5;" width="122.1699" x="393.6851" y="472.0854"/><text fill="#000000" font-family="sans-serif" font-size="12" lengthAdjust="spacing" textLength="102.1699" x="403.6851" y="493.2241">Decode registers</text><rect fill="#F1F1F1" height="33.9688" rx="12.5" ry="12.5" style="stroke:#181818;stroke-width:0.5;" width="144.3477" x="382.5962" y="526.0542"/><text fill="#000000" font-family="sans-serif" font-size="12" lengthAdjust="spacing" textLength="124.3477" x="392.5962" y="547.1929">Generate immediate</text><path d="M39,570.0229 L39,695.9526 A0,0 0 0 0 39,695.9526 L366.6743,695.9526 A0,0 0 0 0 366.6743,695.9526 L366.6743,636.9878 L386.6743,632.9878 L366.6743,628.9878 L366.6743,580.0229 L356.6743,570.0229 L39,570.0229 A0,0 0 0 0 39,570.0229" fill="#FEFFDD" style="stroke:#181818;stroke-width:0.5;"/><path d="M356.6743,570.0229 L356.6743,580.0229 L366.6743,580.0229 L356.6743,570.0229" fill="#FEFFDD" style="stroke:#181818;stroke-width:0.5;"/><text fill="#000000" font-family="sans-serif" font-size="13" lengthAdjust="spacing" textLength="113.0898" x="45" y="587.0898">Main component:</text><text fill="#000000" font-family="sans-serif" font-size="13" lengthAdjust="spacing" textLength="231.1182" x="45" y="602.2227">Switches over decoded instructions</text><text fill="#000000" font-family="sans-serif" font-size="13" lengthAdjust="spacing" textLength="243.3247" x="45" y="617.3555">and perform operations that changes</text><text fill="#000000" font-family="sans-serif" font-size="13" lengthAdjust="spacing" textLength="121.7354" x="45" y="632.4883">program state e.g:</text><text fill="#000000" font-family="sans-serif" font-size="13" lengthAdjust="spacing" textLength="234.0381" x="45" y="647.6211">ALU operations, branch, load, store.</text><text fill="#000000" font-family="sans-serif" font-size="13" lengthAdjust="spacing" textLength="306.6743" x="45" y="662.7539">Can change PC on jump or branch instructions.</text><line style="stroke:#181818;stroke-width:1;" x1="39" x2="366.6743" y1="670.8198" y2="670.8198"/><line style="stroke:#181818;stroke-width:1;" x1="39" x2="366.6743" y1="672.8198" y2="672.8198"/><text fill="#000000" font-family="sans-serif" font-size="13" lengthAdjust="spacing" textLength="77.2192" x="45" y="687.8867">Can exit via</text><text fill="#000000" font-family="sans-serif" font-size="13" font-style="italic" lengthAdjust="spacing" textLength="30.3354" x="126.3516" y="687.8867">ecall</text><text fill="#000000" font-family="sans-serif" font-size="13" lengthAdjust="spacing" textLength="73.4868" x="160.8193" y="687.8867">instruction.</text><rect fill="#F1F1F1" height="33.9688" rx="12.5" ry="12.5" style="stroke:#181818;stroke-width:0.5;" width="136.1914" x="386.6743" y="616.0034"/><text fill="#000000" font-family="sans-serif" font-size="12" lengthAdjust="spacing" textLength="116.1914" x="396.6743" y="637.1421">Execute instruction</text><polygon fill="#F1F1F1" points="412.6902,254.4688,496.8499,254.4688,508.8499,266.4688,496.8499,278.4688,412.6902,278.4688,400.6902,266.4688,412.6902,254.4688" style="stroke:#181818;stroke-width:0.5;"/><text fill="#000000" font-family="sans-serif" font-size="11" lengthAdjust="spacing" textLength="19.2178" x="458.77" y="288.6792">Yes</text><text fill="#000000" font-family="sans-serif" font-size="11" lengthAdjust="spacing" textLength="84.1597" x="412.6902" y="270.2769">PC &lt; progSize?</text><text fill="#000000" font-family="sans-serif" font-size="11" lengthAdjust="spacing" textLength="14.9585" x="385.7317" y="263.8745">No</text><rect fill="#F1F1F1" height="33.9688" rx="12.5" ry="12.5" style="stroke:#181818;stroke-width:0.5;" width="167.123" x="371.2085" y="737.9526"/><text fill="#000000" font-family="sans-serif" font-size="12" lengthAdjust="spacing" textLength="147.123" x="381.2085" y="759.0913">Return with status value</text><polygon fill="#F1F1F1" points="407.0679,803.9214,502.4722,803.9214,512.4722,834.8745,502.4722,865.8276,407.0679,865.8276" style="stroke:#181818;stroke-width:0.5;"/><text fill="#000000" font-family="sans-serif" font-size="12" lengthAdjust="spacing" textLength="33.5098" x="417.0679" y="825.0601">prog*</text><text fill="#000000" font-family="sans-serif" font-size="12" lengthAdjust="spacing" textLength="46.8867" x="417.0679" y="839.0288">regFile*</text><text fill="#000000" font-family="sans-serif" font-size="12" lengthAdjust="spacing" textLength="75.4043" x="417.0679" y="852.9976">returnStatus</text><rect fill="none" height="70.2969" style="stroke:#000000;stroke-width:1.5;" width="54.9795" x="427.2803" y="876.6294"/><path d="M472.2598,876.6294 L472.2598,885.9263 L462.2598,895.9263 L427.2803,895.9263" fill="none" style="stroke:#000000;stroke-width:1.5;"/><text fill="#000000" font-family="sans-serif" font-size="14" lengthAdjust="spacing" textLength="34.9795" x="430.2803" y="890.6245">main</text><ellipse cx="454.77" cy="923.9263" fill="none" rx="11" ry="11" style="stroke:#222222;stroke-width:1;"/><ellipse cx="454.77" cy="923.9263" fill="#222222" rx="6" ry="6" style="stroke:#222222;stroke-width:1;"/><line style="stroke:#181818;stroke-width:1;" x1="454.77" x2="454.77" y1="60.2969" y2="92.2969"/><polygon fill="#181818" points="450.77,82.2969,454.77,92.2969,458.77,82.2969,454.77,86.2969" style="stroke:#181818;stroke-width:1;"/><line style="stroke:#181818;stroke-width:1;" x1="454.77" x2="454.77" y1="344.1479" y2="364.1479"/><polygon fill="#181818" points="450.77,354.1479,454.77,364.1479,458.77,354.1479,454.77,358.1479" style="stroke:#181818;stroke-width:1;"/><line style="stroke:#181818;stroke-width:1;" x1="454.77" x2="454.77" y1="398.1167" y2="418.1167"/><polygon fill="#181818" points="450.77,408.1167,454.77,418.1167,458.77,408.1167,454.77,412.1167" style="stroke:#181818;stroke-width:1;"/><line style="stroke:#181818;stroke-width:1;" x1="454.77" x2="454.77" y1="452.0854" y2="472.0854"/><polygon fill="#181818" points="450.77,462.0854,454.77,472.0854,458.77,462.0854,454.77,466.0854" style="stroke:#181818;stroke-width:1;"/><line style="stroke:#181818;stroke-width:1;" x1="454.77" x2="454.77" y1="506.0542" y2="526.0542"/><polygon fill="#181818" points="450.77,516.0542,454.77,526.0542,458.77,516.0542,454.77,520.0542" style="stroke:#181818;stroke-width:1;"/><line style="stroke:#181818;stroke-width:1;" x1="454.77" x2="454.77" y1="560.0229" y2="616.0034"/><polygon fill="#181818" points="450.77,606.0034,454.77,616.0034,458.77,606.0034,454.77,610.0034" style="stroke:#181818;stroke-width:1;"/><line style="stroke:#181818;stroke-width:1;" x1="454.77" x2="454.77" y1="278.4688" y2="310.1792"/><polygon fill="#181818" points="450.77,300.1792,454.77,310.1792,458.77,300.1792,454.77,304.1792" style="stroke:#181818;stroke-width:1;"/><line style="stroke:#181818;stroke-width:1;" x1="454.77" x2="454.77" y1="649.9722" y2="705.9526"/><line style="stroke:#181818;stroke-width:1;" x1="454.77" x2="548.7788" y1="705.9526" y2="705.9526"/><polygon fill="#181818" points="544.7788,492.1636,548.7788,482.1636,552.7788,492.1636,548.7788,488.1636" style="stroke:#181818;stroke-width:1;"/><line style="stroke:#181818;stroke-width:1;" x1="548.7788" x2="548.7788" y1="266.4688" y2="705.9526"/><line style="stroke:#181818;stroke-width:1;" x1="548.7788" x2="508.8499" y1="266.4688" y2="266.4688"/><polygon fill="#181818" points="518.8499,262.4688,508.8499,266.4688,518.8499,270.4688,514.8499,266.4688" style="stroke:#181818;stroke-width:1;"/><line style="stroke:#181818;stroke-width:1;" x1="400.6902" x2="27" y1="266.4688" y2="266.4688"/><polygon fill="#181818" points="23,478.1636,27,488.1636,31,478.1636,27,482.1636" style="stroke:#181818;stroke-width:1;"/><line style="stroke:#181818;stroke-width:1;" x1="27" x2="27" y1="266.4688" y2="717.9526"/><line style="stroke:#181818;stroke-width:1;" x1="27" x2="454.77" y1="717.9526" y2="717.9526"/><line style="stroke:#181818;stroke-width:1;" x1="454.77" x2="454.77" y1="717.9526" y2="737.9526"/><polygon fill="#181818" points="450.77,727.9526,454.77,737.9526,458.77,727.9526,454.77,731.9526" style="stroke:#181818;stroke-width:1;"/><line style="stroke:#181818;stroke-width:1;" x1="454.77" x2="454.77" y1="234.4688" y2="254.4688"/><polygon fill="#181818" points="450.77,244.4688,454.77,254.4688,458.77,244.4688,454.77,248.4688" style="stroke:#181818;stroke-width:1;"/><line style="stroke:#181818;stroke-width:1;" x1="454.77" x2="454.77" y1="154.2031" y2="200.5"/><polygon fill="#181818" points="450.77,190.5,454.77,200.5,458.77,190.5,454.77,194.5" style="stroke:#181818;stroke-width:1;"/><line style="stroke:#181818;stroke-width:1;" x1="454.77" x2="454.77" y1="771.9214" y2="803.9214"/><polygon fill="#181818" points="450.77,793.9214,454.77,803.9214,458.77,793.9214,454.77,797.9214" style="stroke:#181818;stroke-width:1;"/><line style="stroke:#181818;stroke-width:1;" x1="454.77" x2="454.77" y1="865.8276" y2="912.9263"/><polygon fill="#181818" points="450.77,902.9263,454.77,912.9263,458.77,902.9263,454.77,906.9263" style="stroke:#181818;stroke-width:1;"/><!--SRC=[PL9DRzim3BthLn2zz0D9tGRe9Kax36at56Y6eCO6xAZ9jAt1-e149Ts6_lTHZeqvc0-6HBxtI3soE8SjafnNagHOt2pkvhUtyyMTs7xRGUbgAhLvJHRgpXsWqh89qeZpGWWl0sdIpiAPaTgUmHy148cZubs8fG-kkHBvN-hVA08sdtI7LojOhxNrYHuUJYIYDhaOLpeABNSRk8URbJYqJ8CBlgvXLFjm2Jh2nNUCbmnbyBED59BgfMearQx6k0feq1BiDaFe4PMh4FI4GRyydcQvMnq9Gnp2dz5YaCGqOv1De17_z8OgqOdSCMCTHpkigRy1RDaYKCvuPxcTvH0j3vgRnGXkZm6gldWr5Oi3KDeAF8RQ1GFEvrvo4gYL1AgLji4HcJtY4UL9S0TutOorFhvydL1dy2D8gzePT4vMCuQxWDS3T2FjeCg-0JlqCnaFBWoSamP7pZr_4pg-QOAzbb0Kg6JN5SMKTIGXFohx9FWmZFcBonDTlYAbO87TQVk7f0XxsILs_TzgZHl5XmmkUrXUBvVe__sQhgZpulql]--></g></svg>