<svg xmlns="http://www.w3.org/2000/svg" xmlns:xlink="http://www.w3.org/1999/xlink" contentStyleType="text/css" data-diagram-type="DESCRIPTION" height="665px" preserveAspectRatio="none" style="width:280px;height:665px;background:#FFFFFF;" version="1.1" viewBox="0 0 280 665" width="280px" zoomAndPan="magnify"><defs/><g><!--cluster main--><g class="cluster" data-entity="main" data-source-line="6" data-uid="ent0002" id="cluster_main"><path d="M8.5,6 L48.3008,6 A3.75,3.75 0 0 1 50.8008,8.5 L57.8008,28.2969 L159.5,28.2969 A2.5,2.5 0 0 1 162,30.7969 L162,655.69 A2.5,2.5 0 0 1 159.5,658.19 L8.5,658.19 A2.5,2.5 0 0 1 6,655.69 L6,8.5 A2.5,2.5 0 0 1 8.5,6" fill="none" style="stroke:#000000;stroke-width:1.5;"/><line style="stroke:#000000;stroke-width:1.5;" x1="6" x2="57.8008" y1="28.2969" y2="28.2969"/><text fill="#000000" font-family="sans-serif" font-size="14" font-weight="bold" lengthAdjust="spacing" textLength="38.8008" x="10" y="20.9951">main</text></g><!--entity start--><g class="entity" data-entity="start" data-source-line="7" data-uid="ent0003" id="entity_start"><ellipse cx="84" cy="70" fill="#F1F1F1" rx="8" ry="8" style="stroke:#181818;stroke-width:0.5;"/><text fill="#000000" font-family="sans-serif" font-size="14" lengthAdjust="spacing" textLength="32.6074" x="67.6963" y="99.9951">start</text></g><!--entity CLI--><g class="entity" data-entity="CLI" data-source-line="8" data-uid="ent0004" id="entity_CLI"><rect fill="#F1F1F1" height="46.2969" rx="2.5" ry="2.5" style="stroke:#181818;stroke-width:0.5;" width="61.7041" x="53.15" y="159"/><rect fill="#F1F1F1" height="10" style="stroke:#181818;stroke-width:0.5;" width="15" x="94.8541" y="164"/><rect fill="#F1F1F1" height="2" style="stroke:#181818;stroke-width:0.5;" width="4" x="92.8541" y="166"/><rect fill="#F1F1F1" height="2" style="stroke:#181818;stroke-width:0.5;" width="4" x="92.8541" y="170"/><text fill="#000000" font-family="sans-serif" font-size="14" lengthAdjust="spacing" textLength="21.7041" x="68.15" y="191.9951">CLI</text></g><!--entity Read binary--><g class="entity" data-entity="Read binary" data-source-line="9" data-uid="ent0005" id="entity_Read binary"><rect fill="#F1F1F1" height="46.2969" rx="2.5" ry="2.5" style="stroke:#181818;stroke-width:0.5;" width="124.5264" x="21.74" y="265.3"/><rect fill="#F1F1F1" height="10" style="stroke:#181818;stroke-width:0.5;" width="15" x="126.2664" y="270.3"/><rect fill="#F1F1F1" height="2" style="stroke:#181818;stroke-width:0.5;" width="4" x="124.2664" y="272.3"/><rect fill="#F1F1F1" height="2" style="stroke:#181818;stroke-width:0.5;" width="4" x="124.2664" y="276.3"/><text fill="#000000" font-family="sans-serif" font-size="14" lengthAdjust="spacing" textLength="84.5264" x="36.74" y="298.2951">Read binary</text></g><!--entity SimSoftRun--><g class="entity" data-entity="SimSoftRun" data-source-line="10" data-uid="ent0006" id="entity_SimSoftRun"><rect fill="#F1F1F1" height="46.2969" rx="2.5" ry="2.5" style="stroke:#181818;stroke-width:0.5;" width="121.7578" x="23.12" y="371.6"/><rect fill="#F1F1F1" height="10" style="stroke:#181818;stroke-width:0.5;" width="15" x="124.8778" y="376.6"/><rect fill="#F1F1F1" height="2" style="stroke:#181818;stroke-width:0.5;" width="4" x="122.8778" y="378.6"/><rect fill="#F1F1F1" height="2" style="stroke:#181818;stroke-width:0.5;" width="4" x="122.8778" y="382.6"/><text fill="#000000" font-family="sans-serif" font-size="14" lengthAdjust="spacing" textLength="81.7578" x="38.12" y="404.5951">SimSoftRun</text></g><!--entity WriteBinary--><g class="entity" data-entity="WriteBinary" data-source-line="11" data-uid="ent0007" id="entity_WriteBinary"><rect fill="#F1F1F1" height="46.2969" rx="2.5" ry="2.5" style="stroke:#181818;stroke-width:0.5;" width="122.5781" x="22.71" y="477.89"/><rect fill="#F1F1F1" height="10" style="stroke:#181818;stroke-width:0.5;" width="15" x="125.2881" y="482.89"/><rect fill="#F1F1F1" height="2" style="stroke:#181818;stroke-width:0.5;" width="4" x="123.2881" y="484.89"/><rect fill="#F1F1F1" height="2" style="stroke:#181818;stroke-width:0.5;" width="4" x="123.2881" y="488.89"/><text fill="#000000" font-family="sans-serif" font-size="14" lengthAdjust="spacing" textLength="82.5781" x="37.71" y="510.8851">WriteBinary</text></g><!--entity exit--><g class="entity" data-entity="exit" data-source-line="12" data-uid="ent0008" id="entity_exit"><ellipse cx="84" cy="613.19" fill="#F1F1F1" rx="8" ry="8" style="stroke:#181818;stroke-width:0.5;"/><text fill="#000000" font-family="sans-serif" font-size="14" lengthAdjust="spacing" textLength="26.2773" x="70.8613" y="643.1851">exit</text></g><!--entity SimSoft--><g class="entity" data-entity="SimSoft" data-source-line="15" data-uid="ent0009" id="entity_SimSoft"><rect fill="#F1F1F1" height="46.2969" rx="2.5" ry="2.5" style="stroke:#181818;stroke-width:0.5;" width="94.2842" x="179.86" y="371.6"/><rect fill="#F1F1F1" height="10" style="stroke:#181818;stroke-width:0.5;" width="15" x="254.1442" y="376.6"/><rect fill="#F1F1F1" height="2" style="stroke:#181818;stroke-width:0.5;" width="4" x="252.1442" y="378.6"/><rect fill="#F1F1F1" height="2" style="stroke:#181818;stroke-width:0.5;" width="4" x="252.1442" y="382.6"/><text fill="#000000" font-family="sans-serif" font-size="14" lengthAdjust="spacing" textLength="54.2842" x="194.86" y="404.5951">SimSoft</text></g><!--entity rv32i--><g class="entity" data-entity="rv32i" data-source-line="16" data-uid="ent0012" id="entity_rv32i"><rect fill="#F1F1F1" height="46.2969" rx="2.5" ry="2.5" style="stroke:#181818;stroke-width:0.5;" width="75.7451" x="189.13" y="265.3"/><rect fill="#F1F1F1" height="10" style="stroke:#181818;stroke-width:0.5;" width="15" x="244.8751" y="270.3"/><rect fill="#F1F1F1" height="2" style="stroke:#181818;stroke-width:0.5;" width="4" x="242.8751" y="272.3"/><rect fill="#F1F1F1" height="2" style="stroke:#181818;stroke-width:0.5;" width="4" x="242.8751" y="276.3"/><text fill="#000000" font-family="sans-serif" font-size="14" lengthAdjust="spacing" textLength="35.7451" x="204.13" y="298.2951">rv32i</text></g><!--reverse link SimSoftRun to SimSoft--><g class="link" data-entity-1="SimSoftRun" data-entity-2="SimSoft" data-source-line="15" data-uid="lnk11" id="link_SimSoftRun_SimSoft"><path d="M151.17,394.74 C162.57,394.74 167.97,394.74 179.37,394.74" fill="none" id="SimSoftRun-backto-SimSoft" style="stroke:#181818;stroke-width:1;"/><polygon fill="#181818" points="145.17,394.74,154.17,398.74,150.17,394.74,154.17,390.74,145.17,394.74" style="stroke:#181818;stroke-width:1;"/></g><!--link rv32i to SimSoft--><g class="link" data-entity-1="rv32i" data-entity-2="SimSoft" data-source-line="16" data-uid="lnk13" id="link_rv32i_SimSoft"><path d="M227,312.08 C227,329.57 227,347.68 227,365.16" fill="none" id="rv32i-to-SimSoft" style="stroke:#181818;stroke-width:1;"/><polygon fill="#181818" points="227,371.16,231,362.16,227,366.16,223,362.16,227,371.16" style="stroke:#181818;stroke-width:1;"/></g><!--link start to CLI--><g class="link" data-entity-1="start" data-entity-2="CLI" data-source-line="18" data-uid="lnk14" id="link_start_CLI"><path d="M84,78.92 C84,95.4 84,127.88 84,152.65" fill="none" id="start-to-CLI" style="stroke:#0000FF;stroke-width:1;"/><polygon fill="#0000FF" points="84,158.65,88,149.65,84,153.65,80,149.65,84,158.65" style="stroke:#0000FF;stroke-width:1;"/></g><!--link CLI to Read binary--><g class="link" data-entity-1="CLI" data-entity-2="Read binary" data-source-line="19" data-uid="lnk15" id="link_CLI_Read binary"><path d="M84,205.78 C84,223.28 84,241.38 84,258.86" fill="none" id="CLI-to-Read binary" style="stroke:#0000FF;stroke-width:1;"/><polygon fill="#0000FF" points="84,264.86,88,255.86,84,259.86,80,255.86,84,264.86" style="stroke:#0000FF;stroke-width:1;"/></g><!--link Read binary to SimSoftRun--><g class="link" data-entity-1="Read binary" data-entity-2="SimSoftRun" data-source-line="20" data-uid="lnk16" id="link_Read binary_SimSoftRun"><path d="M84,312.08 C84,329.57 84,347.68 84,365.16" fill="none" id="Read binary-to-SimSoftRun" style="stroke:#0000FF;stroke-width:1;"/><polygon fill="#0000FF" points="84,371.16,88,362.16,84,366.16,80,362.16,84,371.16" style="stroke:#0000FF;stroke-width:1;"/></g><!--link SimSoftRun to WriteBinary--><g class="link" data-entity-1="SimSoftRun" data-entity-2="WriteBinary" data-source-line="21" data-uid="lnk17" id="link_SimSoftRun_WriteBinary"><path d="M84,418.38 C84,435.87 84,453.97 84,471.45" fill="none" id="SimSoftRun-to-WriteBinary" style="stroke:#0000FF;stroke-width:1;"/><polygon fill="#0000FF" points="84,477.45,88,468.45,84,472.45,80,468.45,84,477.45" style="stroke:#0000FF;stroke-width:1;"/></g><!--link WriteBinary to exit--><g class="link" data-entity-1="WriteBinary" data-entity-2="exit" data-source-line="22" data-uid="lnk18" id="link_WriteBinary_exit"><path d="M84,524.6 C84,549.4 84,581.9 84,598.33" fill="none" id="WriteBinary-to-exit" style="stroke:#0000FF;stroke-width:1;"/><polygon fill="#0000FF" points="84,604.33,88,595.33,84,599.33,80,595.33,84,604.33" style="stroke:#0000FF;stroke-width:1;"/></g><!--SRC=[LO-n2i9038RtF4NGmUdGLbmTT18Kf0KTIeVOfYLehtAceeZlRgkYlUNWk_yB-JCUuOQLJ4vA44x2cGa24yvWizjY9BjLZ5bTdMlBLZ4NAXrLC1e3d2axKiaug4Zi01yWLjaLb35Ub9n2ibolKaWYfXmFOidTMugbYkj2eyQsi7UYlFX6_t6-YS8JVdAAviI5clb_619tdORI9cQEFm_WlHbDCZoS6awxx5EYUxrllrMVFCshsmDFyixmgAzrLxq0]--></g></svg>